<?xml version="1.0" standalone="no"?>
<!DOCTYPE svg PUBLIC "-//W3C//DTD SVG 20010904//EN"
 "http://www.w3.org/TR/2001/REC-SVG-20010904/DTD/svg10.dtd">
<svg version="1.0" xmlns="http://www.w3.org/2000/svg"
 width="186.000000pt" height="186.000000pt" viewBox="0 0 186.000000 186.000000"
 preserveAspectRatio="xMidYMid meet">
<metadata>
Created by potrace 1.14, written by Peter Selinger 2001-2017
</metadata>
<g transform="translate(0.000000,186.000000) scale(0.100000,-0.100000)"
fill="#000000" stroke="none">
<path d="M150 1625 c0 -228 1 -235 22 -255 12 -11 28 -20 35 -20 7 0 13 -4 13
-10 0 -5 7 -10 15 -10 8 0 15 -5 15 -11 0 -5 5 -7 10 -4 6 3 13 -1 16 -9 3 -9
15 -16 25 -16 10 0 19 -4 19 -10 0 -5 7 -10 15 -10 8 0 15 -4 15 -10 0 -5 9
-10 21 -10 11 0 18 -4 15 -8 -2 -4 9 -14 25 -21 18 -8 26 -17 22 -24 -4 -7 1
-6 10 2 15 11 17 11 17 -2 0 -8 6 -17 12 -19 9 -3 13 -40 13 -136 0 -78 -3
-128 -9 -125 -5 4 -6 1 -1 -7 11 -17 14 -140 3 -146 -4 -3 -5 -11 -1 -17 12
-19 10 -227 -2 -227 -6 0 -6 -3 1 -8 13 -9 13 -115 -1 -124 -7 -5 -6 -8 1 -8
6 0 10 -17 9 -41 -2 -35 2 -44 30 -65 18 -13 37 -24 42 -24 6 0 16 -7 23 -15
7 -9 15 -13 17 -11 3 3 14 -4 26 -15 11 -10 27 -19 34 -19 7 0 13 -4 13 -10 0
-5 9 -10 20 -10 12 0 20 -7 20 -16 0 -10 6 -14 15 -10 8 3 15 1 15 -4 0 -6 7
-10 16 -10 9 0 12 -5 8 -12 -5 -7 -2 -9 8 -6 8 4 21 -2 28 -12 8 -11 17 -17
21 -14 4 2 14 -3 23 -11 18 -18 26 -20 35 -7 3 5 29 22 56 37 28 16 53 33 56
38 4 5 12 6 18 3 6 -4 11 -3 11 3 0 6 20 20 45 31 28 13 43 25 39 32 -5 7 0 9
15 5 14 -3 24 0 28 9 3 8 11 14 19 14 8 0 14 5 14 10 0 6 3 9 8 8 10 -3 55 23
70 41 8 10 11 10 6 2 -4 -8 14 0 39 17 25 18 50 32 55 32 5 0 15 7 22 15 7 8
16 12 21 10 4 -3 12 3 18 12 6 10 11 15 11 11 0 -4 25 8 55 27 30 20 55 32 55
28 0 -4 7 1 15 11 8 11 15 16 15 12 0 -4 6 -1 13 6 9 9 13 40 12 93 -1 44 3
86 8 93 5 7 6 12 1 12 -11 0 -12 90 -1 108 5 6 4 12 0 12 -5 0 -8 37 -8 81 1
54 -3 85 -12 93 -33 29 -41 34 -47 29 -3 -4 -6 0 -6 7 0 7 -3 11 -6 7 -4 -3
-12 -1 -20 6 -33 30 -44 37 -44 31 0 -4 -9 1 -20 11 -11 10 -20 15 -20 11 0
-4 -7 -1 -15 6 -33 30 -45 38 -45 32 0 -3 -7 -1 -15 6 -13 11 -12 15 7 32 12
10 32 21 45 24 12 4 21 10 18 14 -5 8 20 20 38 19 5 0 17 10 28 22 10 12 19
18 19 14 0 -4 8 2 19 13 10 12 21 18 25 14 4 -4 12 1 17 11 6 9 14 15 20 12 5
-4 12 1 15 9 3 9 9 14 13 11 4 -2 19 7 34 21 15 14 27 20 27 15 0 -6 11 1 25
13 l26 24 -1 236 c-1 230 -2 236 -21 226 -10 -6 -19 -15 -19 -21 0 -6 -4 -8
-9 -4 -6 3 -19 -5 -30 -17 -12 -12 -21 -18 -21 -14 0 5 -15 -3 -34 -17 -18
-15 -36 -23 -40 -20 -3 4 -6 -2 -7 -13 0 -12 -3 -14 -6 -6 -4 10 -9 8 -20 -7
-8 -12 -18 -19 -23 -16 -5 3 -15 -4 -23 -15 -7 -11 -17 -17 -20 -13 -4 3 -15
-2 -24 -13 -10 -10 -25 -20 -33 -22 -8 -2 -23 -11 -32 -19 -10 -9 -18 -13 -18
-9 0 4 -7 1 -15 -6 -32 -29 -42 -36 -63 -42 -13 -4 -19 -12 -16 -18 4 -6 3 -8
-3 -5 -5 3 -29 -7 -54 -24 -24 -16 -50 -29 -57 -29 -7 0 -11 -4 -8 -9 7 -11
-22 -23 -36 -14 -6 3 -8 1 -4 -5 3 -6 -3 -13 -14 -17 -11 -3 -20 -11 -20 -16
0 -5 -5 -9 -11 -9 -6 0 -31 -12 -55 -27 -37 -24 -43 -32 -40 -55 3 -17 0 -28
-7 -28 -8 0 -8 -3 -2 -8 16 -11 17 -34 3 -44 -11 -6 -11 -10 0 -17 17 -11 17
-21 0 -32 -8 -6 -9 -9 -2 -9 14 0 13 -50 -1 -50 -6 0 -6 -3 1 -8 12 -8 14 -53
2 -46 -4 3 -8 0 -8 -5 0 -6 4 -11 9 -11 5 0 8 -11 7 -25 0 -14 -5 -25 -11 -25
-5 0 -4 -4 4 -9 10 -6 10 -13 2 -28 -5 -11 -8 -23 -5 -26 9 -8 14 -68 5 -63
-4 3 -8 -1 -8 -9 0 -8 3 -13 6 -13 10 2 71 -37 71 -45 0 -5 5 -5 10 -2 6 3 10
1 10 -4 0 -6 7 -11 15 -11 8 0 15 -4 15 -10 0 -5 7 -10 15 -10 8 0 15 -5 15
-11 0 -5 5 -7 10 -4 5 3 10 1 10 -5 0 -6 4 -8 10 -5 5 3 10 2 10 -3 0 -5 14
-15 30 -22 17 -7 30 -17 30 -22 0 -6 7 -8 15 -4 12 4 13 2 3 -14 -7 -10 -16
-16 -20 -14 -4 3 -8 0 -8 -7 0 -7 -3 -10 -6 -6 -4 3 -13 -1 -21 -9 -8 -8 -18
-12 -23 -9 -4 3 -10 -5 -13 -17 -5 -18 -8 -19 -21 -8 -13 10 -16 10 -16 -4 0
-9 -3 -15 -7 -14 -15 3 -62 -25 -57 -33 3 -5 -2 -6 -10 -3 -9 3 -16 1 -16 -6
0 -6 -4 -9 -9 -5 -5 3 -16 -4 -24 -15 -7 -11 -17 -17 -21 -12 -4 4 -14 -2 -22
-12 -8 -11 -14 -16 -14 -10 0 5 -4 2 -10 -6 -13 -20 -19 -10 -24 38 -3 27 0
42 7 42 8 0 8 3 2 8 -14 10 -14 65 -1 74 7 5 7 8 1 8 -6 0 -10 127 -9 361 1
343 0 362 -18 367 -10 2 -18 8 -18 12 0 8 -51 34 -63 32 -4 -1 -10 5 -13 13
-3 8 -10 12 -15 9 -5 -3 -9 0 -9 6 0 6 -4 9 -9 6 -5 -3 -12 1 -15 10 -4 9 -13
14 -21 10 -9 -3 -15 0 -15 10 0 8 -4 12 -10 9 -5 -3 -10 -1 -10 5 0 6 -4 9 -8
6 -5 -3 -15 4 -22 15 -8 10 -25 19 -37 19 -13 0 -22 5 -21 13 2 6 -3 11 -9 9
-7 -1 -22 7 -33 18 -11 11 -27 20 -36 20 -8 0 -12 5 -9 10 3 6 -3 10 -14 10
-12 0 -21 5 -21 10 0 6 -7 10 -15 10 -8 0 -15 4 -15 9 0 5 -11 12 -25 15 -14
4 -23 11 -20 16 3 5 0 7 -7 5 -8 -3 -23 4 -35 15 -12 11 -26 20 -31 20 -4 0
-17 8 -28 18 -20 19 -26 22 -45 22 -5 0 -8 4 -5 9 3 5 -5 12 -19 15 -14 4 -25
11 -25 16 0 6 -4 10 -10 10 -6 0 -10 -85 -10 -235z"/>
</g>
</svg>
